ISO-10303-21;
HEADER;
/* Generated by software containing ST-Developer
 * from STEP Tools, Inc. (www.steptools.com) 
 */

FILE_DESCRIPTION(
/* description */ (''),
/* implementation_level */ '2;1');

FILE_NAME(
/* name */ 'USB HUB cover.step',
/* time_stamp */ '2026-08-01T02:29:55+02:00',
/* author */ (''),
/* organization */ (''),
/* preprocessor_version */ 'ST-DEVELOPER v20.1',
/* originating_system */ 'Autodesk Translation Framework v15.8.0.0',
/* authorisation */ '');

FILE_SCHEMA (('AUTOMOTIVE_DESIGN { 1 0 10303 214 3 1 1 }'));
ENDSEC;

DATA;
#10=MECHANICAL_DESIGN_GEOMETRIC_PRESENTATION_REPRESENTATION('',(#13),#216);
#11=SHAPE_REPRESENTATION_RELATIONSHIP('SRR','None',#223,#12);
#12=ADVANCED_BREP_SHAPE_REPRESENTATION('',(#14),#215);
#13=STYLED_ITEM('',(#232),#14);
#14=MANIFOLD_SOLID_BREP('Body3',#128);
#15=FACE_OUTER_BOUND('',#22,.T.);
#16=FACE_OUTER_BOUND('',#23,.T.);
#17=FACE_OUTER_BOUND('',#24,.T.);
#18=FACE_OUTER_BOUND('',#25,.T.);
#19=FACE_OUTER_BOUND('',#26,.T.);
#20=FACE_OUTER_BOUND('',#27,.T.);
#21=FACE_OUTER_BOUND('',#28,.T.);
#22=EDGE_LOOP('',(#84,#85,#86,#87));
#23=EDGE_LOOP('',(#88,#89,#90,#91));
#24=EDGE_LOOP('',(#92,#93,#94,#95));
#25=EDGE_LOOP('',(#96,#97,#98,#99));
#26=EDGE_LOOP('',(#100,#101,#102,#103));
#27=EDGE_LOOP('',(#104,#105,#106,#107,#108));
#28=EDGE_LOOP('',(#109,#110,#111,#112,#113));
#29=LINE('',#184,#44);
#30=LINE('',#186,#45);
#31=LINE('',#188,#46);
#32=LINE('',#189,#47);
#33=LINE('',#192,#48);
#34=LINE('',#194,#49);
#35=LINE('',#195,#50);
#36=LINE('',#198,#51);
#37=LINE('',#200,#52);
#38=LINE('',#201,#53);
#39=LINE('',#204,#54);
#40=LINE('',#206,#55);
#41=LINE('',#207,#56);
#42=LINE('',#209,#57);
#43=LINE('',#210,#58);
#44=VECTOR('',#153,10.);
#45=VECTOR('',#154,10.);
#46=VECTOR('',#155,10.);
#47=VECTOR('',#156,10.);
#48=VECTOR('',#159,10.);
#49=VECTOR('',#160,10.);
#50=VECTOR('',#161,10.);
#51=VECTOR('',#164,10.);
#52=VECTOR('',#165,10.);
#53=VECTOR('',#166,10.);
#54=VECTOR('',#169,10.);
#55=VECTOR('',#170,10.);
#56=VECTOR('',#171,10.);
#57=VECTOR('',#174,10.);
#58=VECTOR('',#175,10.);
#59=VERTEX_POINT('',#182);
#60=VERTEX_POINT('',#183);
#61=VERTEX_POINT('',#185);
#62=VERTEX_POINT('',#187);
#63=VERTEX_POINT('',#191);
#64=VERTEX_POINT('',#193);
#65=VERTEX_POINT('',#197);
#66=VERTEX_POINT('',#199);
#67=VERTEX_POINT('',#203);
#68=VERTEX_POINT('',#205);
#69=EDGE_CURVE('',#59,#60,#29,.T.);
#70=EDGE_CURVE('',#59,#61,#30,.T.);
#71=EDGE_CURVE('',#62,#61,#31,.T.);
#72=EDGE_CURVE('',#60,#62,#32,.T.);
#73=EDGE_CURVE('',#60,#63,#33,.T.);
#74=EDGE_CURVE('',#64,#62,#34,.T.);
#75=EDGE_CURVE('',#63,#64,#35,.T.);
#76=EDGE_CURVE('',#63,#65,#36,.T.);
#77=EDGE_CURVE('',#66,#64,#37,.T.);
#78=EDGE_CURVE('',#65,#66,#38,.T.);
#79=EDGE_CURVE('',#65,#67,#39,.T.);
#80=EDGE_CURVE('',#68,#66,#40,.T.);
#81=EDGE_CURVE('',#67,#68,#41,.T.);
#82=EDGE_CURVE('',#67,#59,#42,.T.);
#83=EDGE_CURVE('',#61,#68,#43,.T.);
#84=ORIENTED_EDGE('',*,*,#69,.F.);
#85=ORIENTED_EDGE('',*,*,#70,.T.);
#86=ORIENTED_EDGE('',*,*,#71,.F.);
#87=ORIENTED_EDGE('',*,*,#72,.F.);
#88=ORIENTED_EDGE('',*,*,#73,.F.);
#89=ORIENTED_EDGE('',*,*,#72,.T.);
#90=ORIENTED_EDGE('',*,*,#74,.F.);
#91=ORIENTED_EDGE('',*,*,#75,.F.);
#92=ORIENTED_EDGE('',*,*,#76,.F.);
#93=ORIENTED_EDGE('',*,*,#75,.T.);
#94=ORIENTED_EDGE('',*,*,#77,.F.);
#95=ORIENTED_EDGE('',*,*,#78,.F.);
#96=ORIENTED_EDGE('',*,*,#79,.F.);
#97=ORIENTED_EDGE('',*,*,#78,.T.);
#98=ORIENTED_EDGE('',*,*,#80,.F.);
#99=ORIENTED_EDGE('',*,*,#81,.F.);
#100=ORIENTED_EDGE('',*,*,#82,.F.);
#101=ORIENTED_EDGE('',*,*,#81,.T.);
#102=ORIENTED_EDGE('',*,*,#83,.F.);
#103=ORIENTED_EDGE('',*,*,#70,.F.);
#104=ORIENTED_EDGE('',*,*,#83,.T.);
#105=ORIENTED_EDGE('',*,*,#80,.T.);
#106=ORIENTED_EDGE('',*,*,#77,.T.);
#107=ORIENTED_EDGE('',*,*,#74,.T.);
#108=ORIENTED_EDGE('',*,*,#71,.T.);
#109=ORIENTED_EDGE('',*,*,#82,.T.);
#110=ORIENTED_EDGE('',*,*,#69,.T.);
#111=ORIENTED_EDGE('',*,*,#73,.T.);
#112=ORIENTED_EDGE('',*,*,#76,.T.);
#113=ORIENTED_EDGE('',*,*,#79,.T.);
#114=PLANE('',#142);
#115=PLANE('',#143);
#116=PLANE('',#144);
#117=PLANE('',#145);
#118=PLANE('',#146);
#119=PLANE('',#147);
#120=PLANE('',#148);
#121=ADVANCED_FACE('',(#15),#114,.T.);
#122=ADVANCED_FACE('',(#16),#115,.T.);
#123=ADVANCED_FACE('',(#17),#116,.T.);
#124=ADVANCED_FACE('',(#18),#117,.T.);
#125=ADVANCED_FACE('',(#19),#118,.T.);
#126=ADVANCED_FACE('',(#20),#119,.T.);
#127=ADVANCED_FACE('',(#21),#120,.F.);
#128=CLOSED_SHELL('',(#121,#122,#123,#124,#125,#126,#127));
#129=DERIVED_UNIT_ELEMENT(#131,1.);
#130=DERIVED_UNIT_ELEMENT(#218,-3.);
#131=(
MASS_UNIT()
NAMED_UNIT(*)
SI_UNIT(.KILO.,.GRAM.)
);
#132=DERIVED_UNIT((#129,#130));
#133=MEASURE_REPRESENTATION_ITEM('density measure',
POSITIVE_RATIO_MEASURE(7850.),#132);
#134=PROPERTY_DEFINITION_REPRESENTATION(#139,#136);
#135=PROPERTY_DEFINITION_REPRESENTATION(#140,#137);
#136=REPRESENTATION('material name',(#138),#215);
#137=REPRESENTATION('density',(#133),#215);
#138=DESCRIPTIVE_REPRESENTATION_ITEM('Steel','Steel');
#139=PROPERTY_DEFINITION('material property','material name',#225);
#140=PROPERTY_DEFINITION('material property','density of part',#225);
#141=AXIS2_PLACEMENT_3D('',#180,#149,#150);
#142=AXIS2_PLACEMENT_3D('',#181,#151,#152);
#143=AXIS2_PLACEMENT_3D('',#190,#157,#158);
#144=AXIS2_PLACEMENT_3D('',#196,#162,#163);
#145=AXIS2_PLACEMENT_3D('',#202,#167,#168);
#146=AXIS2_PLACEMENT_3D('',#208,#172,#173);
#147=AXIS2_PLACEMENT_3D('',#211,#176,#177);
#148=AXIS2_PLACEMENT_3D('',#212,#178,#179);
#149=DIRECTION('axis',(0.,0.,1.));
#150=DIRECTION('refdir',(1.,0.,0.));
#151=DIRECTION('center_axis',(1.,0.,0.));
#152=DIRECTION('ref_axis',(0.,1.,0.));
#153=DIRECTION('',(0.,-1.,0.));
#154=DIRECTION('',(0.,0.,1.));
#155=DIRECTION('',(0.,1.,0.));
#156=DIRECTION('',(0.,0.,1.));
#157=DIRECTION('center_axis',(2.93489079122971E-17,-1.,0.));
#158=DIRECTION('ref_axis',(1.,2.93489079122971E-17,0.));
#159=DIRECTION('',(-1.,-2.93489079122971E-17,0.));
#160=DIRECTION('',(1.,2.93489079122971E-17,0.));
#161=DIRECTION('',(0.,0.,1.));
#162=DIRECTION('center_axis',(-0.707106790933006,-0.707106771440089,0.));
#163=DIRECTION('ref_axis',(0.707106771440089,-0.707106790933006,0.));
#164=DIRECTION('',(-0.707106771440089,0.707106790933006,0.));
#165=DIRECTION('',(0.707106771440089,-0.707106790933006,0.));
#166=DIRECTION('',(0.,0.,1.));
#167=DIRECTION('center_axis',(-1.,0.,0.));
#168=DIRECTION('ref_axis',(0.,-1.,0.));
#169=DIRECTION('',(0.,1.,0.));
#170=DIRECTION('',(0.,-1.,0.));
#171=DIRECTION('',(0.,0.,1.));
#172=DIRECTION('center_axis',(0.,1.,0.));
#173=DIRECTION('ref_axis',(-1.,0.,0.));
#174=DIRECTION('',(1.,0.,0.));
#175=DIRECTION('',(-1.,0.,0.));
#176=DIRECTION('center_axis',(0.,0.,1.));
#177=DIRECTION('ref_axis',(1.,0.,0.));
#178=DIRECTION('center_axis',(0.,0.,1.));
#179=DIRECTION('ref_axis',(1.,0.,0.));
#180=CARTESIAN_POINT('',(0.,0.,0.));
#181=CARTESIAN_POINT('Origin',(44.,13.,11.9));
#182=CARTESIAN_POINT('',(44.,54.,11.9));
#183=CARTESIAN_POINT('',(44.,13.,11.9));
#184=CARTESIAN_POINT('',(44.,23.25,11.9));
#185=CARTESIAN_POINT('',(44.,54.,14.9));
#186=CARTESIAN_POINT('',(44.,54.,11.9));
#187=CARTESIAN_POINT('',(44.,13.,14.9));
#188=CARTESIAN_POINT('',(44.,23.25,14.9));
#189=CARTESIAN_POINT('',(44.,13.,11.9));
#190=CARTESIAN_POINT('Origin',(-31.6568542817893,13.,11.9));
#191=CARTESIAN_POINT('',(-31.6568542817893,13.,11.9));
#192=CARTESIAN_POINT('',(-18.3284271408947,13.,11.9));
#193=CARTESIAN_POINT('',(-31.6568542817893,13.,14.9));
#194=CARTESIAN_POINT('',(-18.3284271408947,13.,14.9));
#195=CARTESIAN_POINT('',(-31.6568542817893,13.,11.9));
#196=CARTESIAN_POINT('Origin',(-54.,35.3431463341475,11.9));
#197=CARTESIAN_POINT('',(-54.,35.3431463341475,11.9));
#198=CARTESIAN_POINT('',(-41.2892137541607,22.6323597379081,11.9));
#199=CARTESIAN_POINT('',(-54.,35.3431463341475,14.9));
#200=CARTESIAN_POINT('',(-41.2892137541607,22.6323597379081,14.9));
#201=CARTESIAN_POINT('',(-54.,35.3431463341475,11.9));
#202=CARTESIAN_POINT('Origin',(-54.,54.,11.9));
#203=CARTESIAN_POINT('',(-54.,54.,11.9));
#204=CARTESIAN_POINT('',(-54.,43.75,11.9));
#205=CARTESIAN_POINT('',(-54.,54.,14.9));
#206=CARTESIAN_POINT('',(-54.,43.75,14.9));
#207=CARTESIAN_POINT('',(-54.,54.,11.9));
#208=CARTESIAN_POINT('Origin',(44.,54.,11.9));
#209=CARTESIAN_POINT('',(19.5,54.,11.9));
#210=CARTESIAN_POINT('',(19.5,54.,14.9));
#211=CARTESIAN_POINT('Origin',(-5.,33.5,14.9));
#212=CARTESIAN_POINT('Origin',(-5.,33.5,11.9));
#213=UNCERTAINTY_MEASURE_WITH_UNIT(LENGTH_MEASURE(0.01),#217,
'DISTANCE_ACCURACY_VALUE',
'Maximum model space distance between geometric entities at asserted c
onnectivities');
#214=UNCERTAINTY_MEASURE_WITH_UNIT(LENGTH_MEASURE(0.01),#217,
'DISTANCE_ACCURACY_VALUE',
'Maximum model space distance between geometric entities at asserted c
onnectivities');
#215=(
GEOMETRIC_REPRESENTATION_CONTEXT(3)
GLOBAL_UNCERTAINTY_ASSIGNED_CONTEXT((#213))
GLOBAL_UNIT_ASSIGNED_CONTEXT((#217,#219,#220))
REPRESENTATION_CONTEXT('','3D')
);
#216=(
GEOMETRIC_REPRESENTATION_CONTEXT(3)
GLOBAL_UNCERTAINTY_ASSIGNED_CONTEXT((#214))
GLOBAL_UNIT_ASSIGNED_CONTEXT((#217,#219,#220))
REPRESENTATION_CONTEXT('','3D')
);
#217=(
LENGTH_UNIT()
NAMED_UNIT(*)
SI_UNIT(.MILLI.,.METRE.)
);
#218=(
LENGTH_UNIT()
NAMED_UNIT(*)
SI_UNIT($,.METRE.)
);
#219=(
NAMED_UNIT(*)
PLANE_ANGLE_UNIT()
SI_UNIT($,.RADIAN.)
);
#220=(
NAMED_UNIT(*)
SI_UNIT($,.STERADIAN.)
SOLID_ANGLE_UNIT()
);
#221=SHAPE_DEFINITION_REPRESENTATION(#222,#223);
#222=PRODUCT_DEFINITION_SHAPE('',$,#225);
#223=SHAPE_REPRESENTATION('',(#141),#215);
#224=PRODUCT_DEFINITION_CONTEXT('part definition',#229,'design');
#225=PRODUCT_DEFINITION('2026-07-31-23-58-47-749','USB HUB case',#226,#224);
#226=PRODUCT_DEFINITION_FORMATION('',$,#231);
#227=PRODUCT_RELATED_PRODUCT_CATEGORY('USB HUB case','USB HUB case',(#231));
#228=APPLICATION_PROTOCOL_DEFINITION('international standard',
'automotive_design',2009,#229);
#229=APPLICATION_CONTEXT(
'Core Data for Automotive Mechanical Design Process');
#230=PRODUCT_CONTEXT('part definition',#229,'mechanical');
#231=PRODUCT('2026-07-31-23-58-47-749','USB HUB case',$,(#230));
#232=PRESENTATION_STYLE_ASSIGNMENT((#233));
#233=SURFACE_STYLE_USAGE(.BOTH.,#234);
#234=SURFACE_SIDE_STYLE('',(#235));
#235=SURFACE_STYLE_FILL_AREA(#236);
#236=FILL_AREA_STYLE('Steel - Satin',(#237));
#237=FILL_AREA_STYLE_COLOUR('Steel - Satin',#238);
#238=COLOUR_RGB('Steel - Satin',0.627450980392157,0.627450980392157,0.627450980392157);
ENDSEC;
END-ISO-10303-21;
